@startuml mvca-architecture-v2

title Controller "mediates" between GUI \n and everything else \n

header
<font color=PaleVioletRed size=20>MVCA Architecture</font>
by Andy Bulka 2020
V2.3
endheader

package "App and Model" {
    class Model
    class App
}

' Package GUI {
'     class "View"
' }

Package Controller #PaleVioletRed {
    class "Controller"
}

class "Model"  << (M,#FF7700) >> {
    attr1
    attr2
    attr3
    set_attr1(val)
    set_attr2(val)   <color:DeepSkyBlue><i>// broadcast event
    notify_all()     <color:DeepSkyBlue><i>// broadcast event
}

class "Controller" << (C,#FF7700)>> {
    view
	app
    model
	on_gui_event()
    on_notify()    <color:DeepSkyBlue><i>// listen to broadcast events
}

class "View" << (V,#FF7700) >> {
    buttons
    text inputs
    checkbox inputs
    <i>etc.
    ---
    <img:https://raw.githubusercontent.com/abulka/todomvc-oo/master/docs_other/images/mgm-pattern-gui.png>

    View is the GUI

    e.g. DOM elements
    e.g. GUI user controls
}

class App  << (A,#FF7700) >> {
    model
    view-state
    business_logic1()
    business_logic2()
	notify_all()      <color:DeepSkyBlue><i>// broadcast event
}

note as User #white
    User
    <img:https://raw.githubusercontent.com/abulka/todomvc-oo/master/docs_other/images/mgm-pattern-user-facing-right.png>
end note


"Controller" --> "View" : update View \n <i>e.g. set DOM attrs
"Controller" -----> "Model" : modifies \n model\n
"Controller" --> "App" : modifies \n app, \n access \n view state
"View" ..> "Controller" #Green : GUI events

Model ..> "Controller"  #DeepSkyBlue : <color:DeepSkyBlue>events \n from model \n (setter)
App ..> "Controller"  #DeepSkyBlue : <color:DeepSkyBlue>events \n from app

App --> Model : modifies \n model
User . View : interacts with
User .[hidden] View

' note "View is the GUI e.g. DOM" as c
' View . c
' View .[hidden] c

' note as d
' end note
' Controller ... d
' Controller ...[hidden] d

@enduml


